<svg width="46" height="46" viewBox="0 0 46 46" fill="none" xmlns="http://www.w3.org/2000/svg">
<path d="M44.9683 36.3834L37.8646 29.2626C36.4498 27.8503 34.1063 27.8935 32.642 29.3612L29.0634 32.9479C28.8374 32.8225 28.6033 32.6921 28.3572 32.5538C26.0973 31.2987 23.0039 29.5785 19.7486 26.3135C16.4841 23.0419 14.7655 19.9365 13.5099 17.6698C13.3766 17.4295 13.2499 17.1983 13.1248 16.9785L15.5269 14.5742L16.7076 13.3892C18.1744 11.9191 18.215 9.57099 16.8027 8.1548L9.69876 1.03315C8.28736 -0.381443 5.94299 -0.338432 4.4762 1.13169L2.47401 3.1498L2.52918 3.20442C1.858 4.06282 1.29649 5.05322 0.87961 6.12099C0.49452 7.13733 0.254747 8.10747 0.145078 9.07898C-0.79267 16.8733 2.76078 23.9964 12.4048 33.6632C25.7356 47.0233 36.4791 46.0142 36.9423 45.9646C37.9524 45.844 38.9193 45.6021 39.9026 45.2193C40.9589 44.8056 41.9464 44.2444 42.8019 43.5733L42.8458 43.6115L44.8741 41.6209C46.3377 40.151 46.3799 37.803 44.9683 36.3834ZM43.296 40.0379L42.4021 40.9323L42.0461 41.2753C41.4855 41.8185 40.515 42.5815 39.0979 43.137C38.2935 43.4474 37.5004 43.6468 36.6934 43.7431C36.5919 43.7528 26.4872 44.6169 13.9811 32.0834C3.3475 21.4262 1.64343 15.2851 2.35775 9.33727C2.44722 8.54896 2.64453 7.75564 2.95991 6.92659C3.51893 5.49812 4.27957 4.52639 4.81747 3.9636L6.05334 2.71263C6.64892 2.11412 7.57781 2.06838 8.12229 2.61409L15.226 9.73393C15.7696 10.2803 15.7267 11.2113 15.1302 11.8117L10.3327 16.6153L10.7755 17.3622C11.0216 17.7784 11.2818 18.2449 11.5597 18.7517C12.8794 21.1371 14.6849 24.4023 18.1719 27.894C21.6497 31.3815 24.9028 33.1896 27.2755 34.5088C27.7882 34.7931 28.2564 35.0546 28.6765 35.3053L29.4233 35.7491L34.2176 30.9423C34.8156 30.3454 35.7477 30.3013 36.2922 30.8454L43.3927 37.9636C43.9356 38.5091 43.8925 39.4401 43.296 40.0379Z" fill="#010002"/>
</svg>
