<svg width="58" height="58" viewBox="0 0 58 58" fill="none" xmlns="http://www.w3.org/2000/svg">
<g clip-path="url(#clip0_8_431)">
<path d="M54.6507 37.723C53.4159 36.2432 52.0209 34.9219 50.6717 33.6441C50.1976 33.1949 49.7071 32.7305 49.2348 32.2694C49.2347 32.2693 49.2346 32.2692 49.2344 32.269C48.5991 31.6494 48.2882 31.2095 48.2557 30.8847C48.2237 30.5654 48.4419 30.0916 48.9439 29.3914C49.6944 28.3381 50.4943 27.283 51.2682 26.2628C51.956 25.3558 52.6672 24.4179 53.3488 23.4748L53.5018 23.263C54.8317 21.4223 56.2068 19.5189 56.9436 17.1995C57.1541 16.5345 57.3726 15.5504 56.8455 14.6864C56.3182 13.8223 55.3406 13.5662 54.6517 13.4489C54.3152 13.3912 53.9959 13.3865 53.6987 13.3865L45.0722 13.3788C43.5807 13.354 42.5461 14.0609 41.9822 15.4805C41.5309 16.6143 40.998 17.9282 40.3805 19.1747C39.1992 21.5809 37.6981 24.3524 35.5223 26.6616L35.4256 26.7644C35.2775 26.9226 35.0355 27.1811 34.9112 27.2404C34.6755 27.0923 34.4035 26.2451 34.4159 25.8013C34.4162 25.7903 34.4163 25.7795 34.4163 25.7686L34.4087 15.8008C34.4087 15.7502 34.4051 15.6995 34.3984 15.6493C34.2049 14.2272 33.8277 12.8016 31.577 12.3575C31.5048 12.3432 31.4314 12.3361 31.358 12.3361H22.3846C20.6963 12.3361 19.8033 13.1092 19.0874 13.9474C18.8802 14.1917 18.3296 14.8406 18.6101 15.6337C18.894 16.4363 19.7397 16.5966 20.0173 16.6491C20.9952 16.8347 21.5009 17.3874 21.6575 18.444C21.9669 20.4971 22.0048 22.6933 21.777 25.3524C21.7135 26.0663 21.5953 26.6089 21.4046 27.0601C21.3518 27.1851 21.3054 27.2625 21.2731 27.3081C21.2214 27.2872 21.141 27.2473 21.0297 27.1711C20.3425 26.7009 19.8246 25.9699 19.3238 25.2632C17.3235 22.439 15.6409 19.3197 14.1792 15.7258C13.5773 14.253 12.4457 13.4305 10.9951 13.4092C8.23125 13.3632 5.67508 13.3643 3.18311 13.4127C2.00775 13.4331 1.18353 13.8031 0.732942 14.5126C0.281802 15.2234 0.298322 16.1297 0.782169 17.2067C4.24095 24.8979 7.38152 30.493 10.9649 35.3485C13.488 38.767 16.0279 41.1398 18.9579 42.8162C22.0364 44.5774 25.5083 45.4406 29.5361 45.4405C29.9941 45.4405 30.4601 45.4293 30.9323 45.4068C33.4173 45.2936 34.4283 44.3051 34.5386 41.8849C34.6005 40.6058 34.7429 39.5696 35.2368 38.6693C35.3749 38.4173 35.5308 38.2483 35.6537 38.2174C35.7843 38.1848 36.0159 38.2647 36.2735 38.432C36.7443 38.7378 37.1498 39.1525 37.4832 39.5164C37.8211 39.8864 38.1626 40.2686 38.4931 40.6381C39.1964 41.425 39.9236 42.2387 40.6855 43.0148C42.4088 44.7715 44.3954 45.5771 46.5926 45.4083L54.4873 45.412C54.4875 45.412 54.4876 45.412 54.4877 45.412C54.5128 45.412 54.5378 45.4112 54.5629 45.4095C55.4735 45.3489 56.2608 44.8448 56.7231 44.0261C57.2798 43.0402 57.2714 41.7914 56.7002 40.6844C56.1041 39.5334 55.3308 38.5428 54.6507 37.723ZM54.7539 42.9141C54.645 43.1069 54.5108 43.1421 54.4415 43.1505L46.5485 43.1469C46.5482 43.1469 46.548 43.1469 46.5477 43.1469C46.5165 43.1469 46.4854 43.1481 46.4544 43.1507C44.8994 43.2802 43.5777 42.7336 42.2996 41.4309C41.5746 40.6923 40.8652 39.8987 40.1793 39.1313C39.845 38.7573 39.4994 38.3705 39.1522 37.9904C38.7215 37.5201 38.1892 36.9796 37.5052 36.5354C36.4812 35.8707 35.6326 35.8908 35.1012 36.0247C34.5753 36.1572 33.8278 36.5353 33.2541 37.5824C32.5108 38.9371 32.3468 40.3987 32.28 41.7794C32.2415 42.6238 32.0987 42.8468 32.039 42.9035C31.9608 42.9778 31.6996 43.1084 30.8281 43.1482C26.6397 43.3451 23.1249 42.595 20.0811 40.8536C17.4332 39.3386 15.1147 37.1625 12.7847 34.0059C9.3005 29.285 6.23488 23.8181 2.84495 16.2799C2.72211 16.0068 2.68419 15.8364 2.67321 15.7452C2.75969 15.7168 2.92866 15.6794 3.22491 15.674C5.6916 15.6262 8.22105 15.6249 10.9599 15.6705C11.3349 15.6761 11.7619 15.7886 12.0852 16.5797C13.6123 20.3348 15.3764 23.6028 17.4786 26.5706C18.0367 27.3584 18.7314 28.3389 19.7525 29.0376C20.6877 29.678 21.4466 29.6474 21.9187 29.509C22.391 29.3705 23.0465 28.9858 23.488 27.9405C23.7728 27.2667 23.945 26.508 24.0302 25.5494C24.2738 22.7052 24.2306 20.3405 23.8944 18.1101C23.6575 16.5121 22.8324 15.3577 21.5326 14.7682C21.7635 14.648 22.0236 14.5979 22.3848 14.5979H31.241C31.7392 14.7096 31.8379 14.8409 31.8717 14.8858C32.0152 15.0766 32.0972 15.528 32.1473 15.8807L32.1549 25.7565C32.1349 26.7032 32.595 28.803 34.1617 29.3787C34.1745 29.3835 34.1875 29.3879 34.2005 29.3921C35.6267 29.8582 36.5702 28.8514 37.0766 28.3105L37.1669 28.2144C39.5502 25.6849 41.1551 22.7292 42.4089 20.1753C43.0624 18.8565 43.6159 17.4923 44.0839 16.3164C44.318 15.7267 44.5311 15.6295 45.0396 15.6403C45.0466 15.6405 45.0534 15.6405 45.0605 15.6405L53.6981 15.6482C53.899 15.6482 54.1086 15.6505 54.2713 15.6783C54.6828 15.7484 54.8524 15.8338 54.9082 15.8691C54.914 15.9346 54.9127 16.1231 54.7883 16.5165C54.1617 18.4888 52.9509 20.1645 51.6691 21.9387L51.516 22.1508C50.85 23.0724 50.1467 23.9996 49.4667 24.8965C48.6829 25.9299 47.8726 26.9984 47.1044 28.0767C45.4619 30.3684 45.6063 31.8891 47.656 33.8883C48.1404 34.3612 48.6368 34.8315 49.1171 35.2863C50.4788 36.5761 51.765 37.7943 52.9129 39.1698C53.5138 39.8942 54.195 40.7642 54.6915 41.723C54.9505 42.225 54.887 42.6784 54.7539 42.9141Z" fill="black"/>
<path d="M8.65323 19.3132C8.48714 18.9845 8.3225 18.655 8.1594 18.3248C7.88266 17.765 7.20501 17.5351 6.64477 17.8118C6.08487 18.0885 5.85514 18.7666 6.13177 19.3265C6.29796 19.6628 6.46571 19.9986 6.63479 20.3333C6.83381 20.7271 7.23195 20.9542 7.64484 20.9542C7.81625 20.9542 7.99043 20.915 8.15397 20.8324C8.71155 20.5506 8.93496 19.8705 8.65323 19.3132Z" fill="black"/>
<path d="M15.7459 31.0441C13.8916 28.5319 12.1569 25.8032 10.4428 22.7022C10.1407 22.1556 9.45262 21.9576 8.90613 22.2596C8.35964 22.5617 8.1614 23.2498 8.46353 23.7963C10.226 26.9845 12.0129 29.7947 13.9263 32.3872C14.1481 32.6877 14.4903 32.8466 14.837 32.8466C15.0703 32.8466 15.3056 32.7747 15.5076 32.6254C16.0099 32.2546 16.1166 31.5467 15.7459 31.0441Z" fill="black"/>
</g>
<defs>
<clipPath id="clip0_8_431">
<rect width="56.7665" height="56.7665" fill="white" transform="translate(0.406311 0.505249)"/>
</clipPath>
</defs>
</svg>
