<svg width="48" height="48" viewBox="0 0 48 48" fill="none" xmlns="http://www.w3.org/2000/svg">
<path d="M12.4627 39.7038L14.1752 40.7043C17.063 42.3886 20.3475 43.2728 23.6906 43.2659C27.4331 43.2659 31.0915 42.1561 34.2032 40.0769C37.315 37.9978 39.7403 35.0425 41.1724 31.5849C42.6046 28.1274 42.9793 24.3228 42.2492 20.6522C41.5191 16.9817 39.7169 13.6101 37.0706 10.9638C34.4243 8.31744 31.0527 6.51528 27.3822 5.78517C23.7116 5.05505 19.907 5.42977 16.4494 6.86195C12.9919 8.29412 10.0366 10.7194 7.95744 13.8312C5.87824 16.9429 4.76848 20.6013 4.76848 24.3437C4.76848 27.7403 5.66018 30.9973 7.33243 33.8616L8.33057 35.574L6.78605 41.2531L12.4627 39.7038ZM0.0473956 47.9965L3.24524 36.2458C1.13811 32.6337 0.0310657 28.5255 0.0379346 24.3437C0.0379346 11.2804 10.6273 0.69104 23.6906 0.69104C36.754 0.69104 47.3433 11.2804 47.3433 24.3437C47.3433 37.4071 36.754 47.9965 23.6906 47.9965C19.5107 48.0032 15.4043 46.897 11.7933 44.7915L0.0473956 47.9965ZM15.1544 13.2459C15.4713 13.2222 15.7906 13.2222 16.1076 13.2364C16.2353 13.2459 16.363 13.2601 16.4908 13.2743C16.8668 13.3169 17.2808 13.5463 17.4203 13.8632C18.1252 15.4622 18.8111 17.0729 19.4734 18.6884C19.62 19.0479 19.5325 19.5091 19.2534 19.9585C19.0614 20.2624 18.8538 20.5561 18.6313 20.8384C18.3641 21.1814 17.7893 21.8105 17.7893 21.8105C17.7893 21.8105 17.5551 22.0896 17.645 22.4373C17.6781 22.5698 17.7869 22.7614 17.8863 22.9222L18.0258 23.1469C18.6313 24.1569 19.445 25.1811 20.4384 26.1461C20.7222 26.4205 20.999 26.7019 21.297 26.9645C22.4039 27.9413 23.6575 28.7384 25.0105 29.3297L25.0223 29.3345C25.2233 29.422 25.325 29.4693 25.6183 29.5946C25.765 29.6561 25.9164 29.7105 26.0701 29.7508C26.229 29.7912 26.3963 29.7836 26.5508 29.7289C26.7054 29.6741 26.8402 29.5747 26.9382 29.4433C28.6506 27.3689 28.8067 27.2341 28.8209 27.2341V27.2388C28.9399 27.1279 29.0812 27.0437 29.2354 26.9918C29.3896 26.94 29.5532 26.9218 29.715 26.9384C29.8569 26.9479 30.0012 26.9739 30.1336 27.0331C31.3896 27.6078 33.445 28.5043 33.445 28.5043L34.8216 29.1216C35.0534 29.2328 35.2639 29.4953 35.271 29.7484C35.2805 29.9069 35.2947 30.1623 35.2403 30.6306C35.1646 31.2432 34.9801 31.9788 34.7956 32.3644C34.6692 32.6275 34.5015 32.8686 34.2989 33.0787C34.0602 33.3293 33.7989 33.5573 33.5183 33.7599C33.4213 33.8329 33.3227 33.9039 33.2227 33.9728C32.9285 34.1594 32.6262 34.333 32.3168 34.4931C31.7078 34.8166 31.0352 35.0023 30.3465 35.0371C29.9089 35.0608 29.4714 35.0939 29.0314 35.0702C29.0125 35.0702 27.6879 34.8645 27.6879 34.8645C24.3251 33.98 21.2151 32.3229 18.6053 30.0251C18.0708 29.5544 17.5764 29.0483 17.0702 28.5445C14.9652 26.4512 13.3757 24.1924 12.4107 22.0589C11.9167 21.0118 11.6499 19.872 11.6278 18.7144C11.618 17.2783 12.0874 15.88 12.9618 14.7407C13.1344 14.5184 13.2976 14.2866 13.5791 14.0193C13.8795 13.7355 14.0687 13.5841 14.2745 13.4801C14.5481 13.3429 14.8466 13.2625 15.152 13.2435L15.1544 13.2459Z" fill="black"/>
</svg>
